<svg width="133" height="206" viewBox="0 0 133 206" fill="none" xmlns="http://www.w3.org/2000/svg">
<path fill-rule="evenodd" clip-rule="evenodd" d="M66.103 205.638C64.1554 205.638 62.2874 204.864 60.9102 203.487C59.533 202.11 58.7593 200.242 58.7593 198.294L58.7593 25.0847L12.5524 71.3063C11.1735 72.6853 9.30319 73.4599 7.35304 73.4599C5.4029 73.4599 3.53263 72.6853 2.15367 71.3063C0.774711 69.9273 1.52972e-05 68.0571 1.52588e-05 66.1069C1.52203e-05 64.1568 0.774711 62.2865 2.15367 60.9075L60.9037 2.15755C61.5858 1.47365 62.3962 0.931057 63.2884 0.560837C64.1806 0.190617 65.1371 4.57764e-05 66.103 4.57764e-05C67.069 4.57764e-05 68.0255 0.190617 68.9176 0.560837C69.8098 0.931057 70.6202 1.47365 71.3024 2.15755L130.052 60.9075C131.431 62.2865 132.206 64.1568 132.206 66.1069C132.206 68.0571 131.431 69.9273 130.052 71.3063C128.673 72.6853 126.803 73.4599 124.853 73.4599C122.903 73.4599 121.033 72.6853 119.654 71.3063L73.4468 25.0847L73.4468 198.294C73.4468 200.242 72.6731 202.11 71.2958 203.487C69.9186 204.864 68.0507 205.638 66.103 205.638V205.638Z" fill="#F1B8D3"/>
</svg>
