<svg width="85" height="23" viewBox="0 0 85 23" fill="none" xmlns="http://www.w3.org/2000/svg">
<path d="M12.4347 5.14433C11.593 5.14433 10.7858 5.47869 10.1907 6.07384C9.59553 6.669 9.26117 7.4762 9.26117 8.31788V22.6217H4.61508V12.732H0.654297V8.09998H4.61859C4.66902 6.06037 5.51461 4.12125 6.97489 2.69642C8.43517 1.2716 10.3945 0.473926 12.4347 0.473633H17.0773V5.11973L12.4347 5.14433ZM38.1815 11.6109C37.9953 11.611 37.8139 11.6703 37.6636 11.7803C37.5133 11.8902 37.4017 12.045 37.3451 12.2224L35.4754 18.6679C35.1405 19.807 34.4458 20.807 33.4952 21.5184C32.5447 22.2297 31.3893 22.6142 30.202 22.6142C29.0147 22.6142 27.8593 22.2297 26.9087 21.5184C25.9582 20.807 25.2634 19.807 24.9286 18.6679L23.0589 12.2189C22.9992 12.044 22.8863 11.8921 22.736 11.7846C22.5857 11.6771 22.4055 11.6193 22.2207 11.6193C22.0359 11.6193 21.8557 11.6771 21.7054 11.7846C21.5551 11.8921 21.4422 12.044 21.3825 12.2189L19.5128 18.6679C19.172 19.8114 18.4702 20.8138 17.5124 21.5252C16.5545 22.2366 15.3921 22.6188 14.199 22.6146H12.9057V17.9756H14.2165C14.4005 17.9753 14.5796 17.9166 14.7281 17.808C14.8765 17.6993 14.9866 17.5464 15.0424 17.3711L16.9121 10.9221C17.2517 9.78352 17.9498 8.785 18.9024 8.07502C19.8551 7.36503 21.0115 6.98152 22.1996 6.98152C23.3877 6.98152 24.5441 7.36503 25.4968 8.07502C26.4494 8.785 27.1475 9.78352 27.4871 10.9221L29.3708 17.3781C29.4245 17.5559 29.534 17.7116 29.683 17.8223C29.8321 17.933 30.0128 17.9928 30.1985 17.9928C30.3842 17.9928 30.5649 17.933 30.7139 17.8223C30.863 17.7116 30.9725 17.5559 31.0261 17.3781L32.8958 10.9326C33.2354 9.79407 33.9335 8.79554 34.8861 8.08556C35.8388 7.37557 36.9952 6.99206 38.1833 6.99206C39.3714 6.99206 40.5278 7.37557 41.4805 8.08556C42.4331 8.79554 43.1312 9.79407 43.4708 10.9326L45.3405 17.3781C45.3951 17.5547 45.5047 17.7092 45.6532 17.8192C45.8018 17.9292 45.9815 17.9889 46.1664 17.9896H47.4808V22.6252H46.1839C44.9907 22.6299 43.828 22.2479 42.87 21.5364C41.912 20.8249 41.2104 19.8222 40.8701 18.6785L39.0004 12.2295C38.945 12.0541 38.8364 11.9003 38.6897 11.7895C38.543 11.6787 38.3654 11.6162 38.1815 11.6109V11.6109ZM47.6354 14.795C47.6354 13.2484 48.094 11.7366 48.9532 10.4506C49.8125 9.16471 51.0337 8.16244 52.4626 7.57059C53.8915 6.97874 55.4637 6.82389 56.9806 7.12561C58.4974 7.42733 59.8908 8.17208 60.9844 9.26568C62.078 10.3593 62.8227 11.7526 63.1244 13.2695C63.4262 14.7863 63.2713 16.3586 62.6794 17.7874C62.0876 19.2163 61.0853 20.4376 59.7994 21.2968C58.5135 22.156 57.0016 22.6146 55.455 22.6146C53.3811 22.6146 51.3922 21.7908 49.9257 20.3243C48.4593 18.8579 47.6354 16.8689 47.6354 14.795ZM58.6286 14.795C58.6286 14.1673 58.4425 13.5538 58.0938 13.0319C57.745 12.51 57.2494 12.1032 56.6695 11.863C56.0896 11.6228 55.4515 11.56 54.8359 11.6824C54.2203 11.8049 53.6548 12.1071 53.211 12.551C52.7672 12.9948 52.4649 13.5603 52.3425 14.1759C52.22 14.7915 52.2829 15.4296 52.5231 16.0095C52.7633 16.5894 53.17 17.085 53.6919 17.4337C54.2138 17.7824 54.8274 17.9685 55.455 17.9685C56.2967 17.9685 57.1039 17.6342 57.6991 17.039C58.2942 16.4439 58.6286 15.6367 58.6286 14.795V14.795ZM75.0551 16.4116C75.144 16.2735 75.2227 16.129 75.2906 15.9794C75.5322 15.5089 75.9251 15.1335 76.406 14.9136C76.887 14.6937 77.428 14.6421 77.9418 14.7671C78.4557 14.8921 78.9125 15.1865 79.2387 15.6027C79.5648 16.019 79.7414 16.533 79.7399 17.0618C79.7396 17.3788 79.6738 17.6923 79.5466 17.9826L79.4798 18.1232C78.8273 19.4647 77.8114 20.5962 76.5477 21.389C75.284 22.1817 73.8232 22.604 72.3314 22.6076C70.2575 22.6076 68.2686 21.7838 66.8021 20.3173C65.3356 18.8508 64.5118 16.8619 64.5118 14.788C64.5118 12.7141 65.3356 10.7251 66.8021 9.25865C68.2686 7.79218 70.2575 6.96833 72.3314 6.96833H72.6758C73.9277 7.02093 75.1491 7.37025 76.2395 7.98752V0.473633H80.8856V11.0521C80.8674 11.713 80.5989 12.3423 80.1343 12.8127C79.6698 13.2831 79.0439 13.5595 78.3833 13.586C77.0114 13.6257 75.6728 13.1591 74.6228 12.2751C74.0714 11.8446 73.393 11.6086 72.6934 11.6039H72.349C71.794 11.6043 71.2488 11.7503 70.7679 12.0273C70.287 12.3042 69.8871 12.7024 69.6081 13.1822C69.3291 13.662 69.1808 14.2065 69.1781 14.7615C69.1753 15.3164 69.3181 15.8624 69.5922 16.345C69.8663 16.8275 70.2622 17.2298 70.7403 17.5115C71.2184 17.7933 71.7621 17.9447 72.317 17.9508C72.872 17.9568 73.4188 17.8172 73.903 17.5459C74.3871 17.2746 74.7916 16.8811 75.0762 16.4046L75.0551 16.4116ZM15.5134 10.2543C15.5134 10.9105 15.2527 11.5398 14.7887 12.0038C14.3247 12.4678 13.6954 12.7285 13.0392 12.7285C12.383 12.7285 11.7537 12.4678 11.2897 12.0038C10.8257 11.5398 10.565 10.9105 10.565 10.2543C10.565 9.59814 10.8257 8.96883 11.2897 8.50483C11.7537 8.04084 12.383 7.78017 13.0392 7.78017C13.6954 7.78017 14.3247 8.04084 14.7887 8.50483C15.2527 8.96883 15.5134 9.59814 15.5134 10.2543V10.2543ZM80.1721 20.2178C80.1631 20.6972 80.2969 21.1684 80.5566 21.5714C80.8164 21.9744 81.1902 22.291 81.6305 22.4807C82.0708 22.6705 82.5576 22.7249 83.029 22.6369C83.5003 22.549 83.9348 22.3227 84.277 21.987C84.6193 21.6512 84.8538 21.2211 84.9507 20.7516C85.0476 20.282 85.0026 19.7942 84.8212 19.3504C84.6399 18.9065 84.3306 18.5267 83.9326 18.2593C83.5346 17.992 83.066 17.8491 82.5866 17.8491C82.2722 17.8449 81.9601 17.903 81.6682 18.02C81.3764 18.1369 81.1106 18.3105 80.8862 18.5307C80.6617 18.7509 80.4831 19.0134 80.3605 19.3029C80.238 19.5924 80.174 19.9034 80.1721 20.2178ZM80.6044 20.2178C80.6203 19.8325 80.7489 19.4604 80.9744 19.1476C81.1999 18.8349 81.5123 18.5952 81.8729 18.4585C82.2334 18.3217 82.6261 18.2939 83.0023 18.3784C83.3785 18.463 83.7216 18.6561 83.989 18.934C84.2564 19.2118 84.4362 19.5621 84.5062 19.9413C84.5762 20.3205 84.5333 20.7118 84.3828 21.0668C84.2323 21.4218 83.9808 21.7248 83.6596 21.9381C83.3384 22.1514 82.9616 22.2657 82.576 22.2667C82.3089 22.2703 82.0438 22.2193 81.797 22.1168C81.5503 22.0143 81.3271 21.8625 81.1412 21.6706C80.9553 21.4787 80.8105 21.2509 80.7158 21.0011C80.621 20.7512 80.5784 20.4847 80.5904 20.2178H80.6044ZM81.5955 21.5638H82.0313V20.3619H82.5128L83.2719 21.5568H83.7534L82.9591 20.3267C83.0585 20.3299 83.1575 20.3122 83.2497 20.2748C83.3419 20.2375 83.4252 20.1812 83.4944 20.1098C83.5635 20.0383 83.617 19.9531 83.6513 19.8598C83.6856 19.7664 83.7 19.6669 83.6936 19.5676C83.6936 19.0334 83.3773 18.7698 82.7271 18.7698H81.6482L81.5955 21.5638ZM82.0313 19.1459H82.5866C82.8818 19.1459 83.2016 19.2056 83.2016 19.5711C83.2016 19.9401 82.8501 20.0561 82.4636 20.0561H82.0102L82.0313 19.1459Z" fill="white"/>
</svg>
