<svg width="18" height="18" viewBox="0 0 18 18" fill="none" xmlns="http://www.w3.org/2000/svg">
<path fill-rule="evenodd" clip-rule="evenodd" d="M8.74452 0C6.36951 0 6.0722 0.0104934 5.13916 0.0524671C4.20874 0.0953153 3.57301 0.243098 3.01686 0.459088C2.43315 0.678439 1.90434 1.02252 1.46733 1.46733C1.02255 1.90436 0.678465 2.43317 0.459088 3.01686C0.243098 3.57301 0.0953153 4.20874 0.0524671 5.13916C0.00961893 6.0722 0 6.36951 0 8.74452C0 11.1195 0.00961893 11.4168 0.0524671 12.3499C0.0953153 13.2803 0.243098 13.916 0.459088 14.4722C0.67849 15.0559 1.02257 15.5847 1.46733 16.0217C1.90438 16.4665 2.43318 16.8106 3.01686 17.03C3.57301 17.246 4.20874 17.3937 5.13916 17.4366C6.0722 17.4786 6.36951 17.489 8.74452 17.489C11.1195 17.489 11.4168 17.4786 12.3499 17.4366C13.2803 17.3937 13.916 17.246 14.4722 17.03C15.0559 16.8106 15.5847 16.4665 16.0217 16.0217C16.4665 15.5847 16.8106 15.0559 17.03 14.4722C17.246 13.916 17.3937 13.2803 17.4366 12.3499C17.4786 11.4168 17.489 11.1195 17.489 8.74452C17.489 6.36951 17.4786 6.0722 17.4366 5.13916C17.3937 4.20874 17.246 3.57301 17.03 3.01686C16.8106 2.43317 16.4665 1.90436 16.0217 1.46733C15.5847 1.02252 15.0559 0.678439 14.4722 0.459088C13.916 0.243098 13.2803 0.0953153 12.3499 0.0524671C11.4168 0.0104934 11.1195 0 8.74452 0ZM8.74452 1.57576C11.0793 1.57576 11.3556 1.58451 12.2773 1.62648C13.1308 1.66583 13.5934 1.80749 13.902 1.92729C14.3095 2.08644 14.6016 2.2762 14.9077 2.58138C15.2137 2.88744 15.4026 3.17951 15.5618 3.587C15.6807 3.89569 15.8241 4.35827 15.8626 5.21086C15.9045 6.13341 15.9133 6.40886 15.9133 8.74452C15.9133 11.0793 15.9045 11.3556 15.8626 12.2773C15.8232 13.1308 15.6807 13.5934 15.5618 13.902C15.4216 14.2819 15.1981 14.6255 14.9077 14.9077C14.6016 15.2137 14.3095 15.4026 13.902 15.5618C13.5934 15.6807 13.1308 15.8241 12.2782 15.8626C11.3565 15.9045 11.0802 15.9133 8.74452 15.9133C6.40974 15.9133 6.13253 15.9045 5.21174 15.8626C4.35827 15.8232 3.89569 15.6807 3.587 15.5618C3.20713 15.4216 2.8635 15.1981 2.58138 14.9077C2.29094 14.6256 2.06743 14.2819 1.92729 13.902C1.80749 13.5934 1.66496 13.1308 1.62648 12.2782C1.58451 11.3556 1.57576 11.0802 1.57576 8.74452C1.57576 6.40974 1.58451 6.13341 1.62648 5.21174C1.66583 4.35827 1.80749 3.89569 1.92729 3.587C2.08644 3.17951 2.2762 2.88744 2.58138 2.58138C2.88744 2.27533 3.17951 2.08644 3.587 1.92729C3.89569 1.80749 4.35827 1.66496 5.21086 1.62648C6.13341 1.58451 6.40886 1.57576 8.74452 1.57576ZM8.74452 11.6591C7.97154 11.6591 7.23021 11.352 6.68363 10.8054C6.13704 10.2588 5.82997 9.51751 5.82997 8.74452C5.82997 7.97154 6.13704 7.23021 6.68363 6.68363C7.23021 6.13704 7.97154 5.82997 8.74452 5.82997C9.51751 5.82997 10.2588 6.13704 10.8054 6.68363C11.352 7.23021 11.6591 7.97154 11.6591 8.74452C11.6591 9.51751 11.352 10.2588 10.8054 10.8054C10.2588 11.352 9.51751 11.6591 8.74452 11.6591ZM8.74452 4.25421C8.15485 4.25421 7.57095 4.37036 7.02616 4.59602C6.48137 4.82167 5.98636 5.15243 5.56939 5.56939C5.15243 5.98636 4.82167 6.48137 4.59602 7.02616C4.37036 7.57095 4.25421 8.15485 4.25421 8.74452C4.25421 9.3342 4.37036 9.9181 4.59602 10.4629C4.82167 11.0077 5.15243 11.5027 5.56939 11.9197C5.98636 12.3366 6.48137 12.6674 7.02616 12.893C7.57095 13.1187 8.15485 13.2348 8.74452 13.2348C9.93543 13.2348 11.0776 12.7618 11.9197 11.9197C12.7618 11.0776 13.2348 9.93543 13.2348 8.74452C13.2348 7.55362 12.7618 6.41149 11.9197 5.56939C11.0776 4.7273 9.93543 4.25421 8.74452 4.25421ZM14.4617 4.0767C14.4617 4.2145 14.4346 4.35095 14.3818 4.47826C14.3291 4.60558 14.2518 4.72125 14.1543 4.81869C14.0569 4.91614 13.9412 4.99343 13.8139 5.04616C13.6866 5.0989 13.5502 5.12604 13.4124 5.12604C13.2745 5.12604 13.1381 5.0989 13.0108 5.04616C12.8835 4.99343 12.7678 4.91614 12.6704 4.81869C12.5729 4.72125 12.4956 4.60558 12.4429 4.47826C12.3902 4.35095 12.363 4.2145 12.363 4.0767C12.363 3.79839 12.4736 3.53149 12.6704 3.3347C12.8671 3.13791 13.134 3.02735 13.4124 3.02735C13.6907 3.02735 13.9576 3.13791 14.1543 3.3347C14.3511 3.53149 14.4617 3.79839 14.4617 4.0767Z" fill="white"/>
</svg>
