<svg width="104" height="103" viewBox="0 0 104 103" fill="none" xmlns="http://www.w3.org/2000/svg">
<g clip-path="url(#clip0_175_39)">
<path d="M45.2281 62.3775C46.006 62.3775 46.7763 62.2242 47.495 61.9264C48.2136 61.6286 48.8665 61.1921 49.4164 60.6418C49.9663 60.0916 50.4023 59.4383 50.6996 58.7195C50.9969 58.0006 51.1496 57.2302 51.1491 56.4523V46.2715C51.1491 45.8028 51.2415 45.3388 51.421 44.9058C51.6004 44.4728 51.8635 44.0795 52.1951 43.7483C52.5267 43.4171 52.9204 43.1545 53.3536 42.9755C53.7867 42.7965 54.2509 42.7047 54.7196 42.7053H66.2105C66.2313 42.7047 66.2518 42.7001 66.2708 42.6916C66.2898 42.6831 66.3069 42.671 66.3212 42.6559C66.3356 42.6408 66.3467 42.623 66.3542 42.6035C66.3616 42.5841 66.3652 42.5634 66.3646 42.5426V40.5047C66.3646 40.4638 66.3484 40.4246 66.3194 40.3957C66.2905 40.3668 66.2513 40.3506 66.2105 40.3506H52.365C51.587 40.35 50.8166 40.5028 50.0978 40.8001C49.3789 41.0974 48.7257 41.5334 48.1754 42.0833C47.6252 42.6331 47.1887 43.2861 46.8908 44.0047C46.593 44.7233 46.4397 45.4936 46.4397 46.2715V56.4609C46.4397 57.4071 46.0641 58.3146 45.3955 58.9841C44.7268 59.6536 43.8197 60.0303 42.8735 60.0314H31.541C31.5204 60.0314 31.5 60.0355 31.481 60.0435C31.4621 60.0516 31.4449 60.0633 31.4305 60.0781C31.4161 60.0928 31.4049 60.1103 31.3974 60.1295C31.3899 60.1487 31.3863 60.1692 31.3869 60.1898V62.2277C31.3869 62.2686 31.4031 62.3078 31.4321 62.3367C31.461 62.3656 31.5002 62.3818 31.541 62.3818L45.2281 62.3775ZM71.1082 48.6219V40.5047C71.1082 40.4638 71.1244 40.4246 71.1533 40.3957C71.1822 40.3668 71.2214 40.3506 71.2623 40.3506H102.55C102.591 40.3506 102.631 40.3667 102.66 40.3955C102.69 40.4242 102.707 40.4634 102.708 40.5047V42.5426C102.708 42.585 102.691 42.6257 102.662 42.6561C102.632 42.6865 102.592 42.7042 102.55 42.7053H75.9631C75.9429 42.7053 75.9228 42.7093 75.9041 42.717C75.8854 42.7247 75.8684 42.7361 75.8541 42.7504C75.8398 42.7647 75.8285 42.7817 75.8207 42.8004C75.813 42.8191 75.809 42.8391 75.809 42.8594V48.151C75.8079 48.3745 75.851 48.596 75.9361 48.8028C76.0211 49.0095 76.1462 49.1973 76.3043 49.3554C76.4623 49.5134 76.6501 49.6386 76.8569 49.7236C77.0636 49.8086 77.2851 49.8518 77.5086 49.8506H97.2965C98.8938 49.9441 100.395 50.6444 101.493 51.8084C102.591 52.9724 103.202 54.5119 103.202 56.1119C103.202 57.712 102.591 59.2515 101.493 60.4155C100.395 61.5795 98.8938 62.2798 97.2965 62.3733H71.2666C71.246 62.3738 71.2255 62.3703 71.2063 62.3628C71.1871 62.3553 71.1696 62.344 71.1548 62.3297C71.1401 62.3153 71.1283 62.2981 71.1203 62.2791C71.1123 62.2601 71.1082 62.2397 71.1082 62.2191V60.1898C71.1076 60.1692 71.1112 60.1487 71.1187 60.1295C71.1262 60.1103 71.1374 60.0928 71.1518 60.0781C71.1662 60.0633 71.1834 60.0516 71.2023 60.0435C71.2213 60.0355 71.2417 60.0314 71.2623 60.0314H94.9375C95.4674 60.0541 95.9964 59.969 96.4925 59.7814C96.9885 59.5938 97.4414 59.3075 97.8236 58.9398C98.2059 58.5722 98.5096 58.1308 98.7164 57.6424C98.9232 57.154 99.0287 56.6288 99.0267 56.0984C99.0247 55.568 98.9151 55.0436 98.7046 54.5568C98.4941 54.07 98.187 53.631 97.8019 53.2662C97.4169 52.9015 96.9619 52.6187 96.4644 52.4349C95.9669 52.251 95.4373 52.17 94.9076 52.1968H74.6745C74.2054 52.1968 73.741 52.1042 73.3077 51.9245C72.8745 51.7447 72.481 51.4813 72.1497 51.1492C71.8184 50.8171 71.5559 50.423 71.3772 49.9893C71.1985 49.5556 71.1071 49.091 71.1082 48.6219V48.6219ZM24.6739 49.8506C25.622 49.8506 26.5313 49.474 27.2017 48.8036C27.8721 48.1332 28.2488 47.2239 28.2488 46.2758C28.2488 45.3277 27.8721 44.4184 27.2017 43.748C26.5313 43.0776 25.622 42.701 24.6739 42.701H0.647651C0.606371 42.701 0.566715 42.6849 0.537128 42.6561C0.507542 42.6273 0.490361 42.5881 0.489246 42.5469V40.509C0.489238 40.4884 0.493362 40.468 0.501373 40.449C0.509385 40.43 0.521122 40.4128 0.535891 40.3985C0.550659 40.3841 0.568159 40.3728 0.587355 40.3653C0.606551 40.3579 0.627054 40.3543 0.647651 40.3549H26.9858C28.5291 40.3964 29.9953 41.0386 31.0722 42.1449C32.1492 43.2511 32.7518 44.7341 32.7518 46.278C32.7518 47.8218 32.1492 49.3048 31.0722 50.411C29.9953 51.5173 28.5291 52.1595 26.9858 52.201H8.76487C8.29618 52.201 7.83209 52.2934 7.39913 52.4729C6.96617 52.6524 6.57284 52.9155 6.24162 53.2471C5.91041 53.5787 5.64781 53.9723 5.46884 54.4055C5.28987 54.8387 5.19804 55.3029 5.1986 55.7716V62.2491C5.19861 62.2697 5.19449 62.2901 5.18648 62.3091C5.17846 62.3281 5.16673 62.3453 5.15196 62.3596C5.13719 62.374 5.11969 62.3853 5.10049 62.3927C5.0813 62.4002 5.06079 62.4038 5.0402 62.4032H0.647651C0.62553 62.404 0.603505 62.4 0.583076 62.3914C0.562647 62.3829 0.544293 62.3701 0.529263 62.3538C0.514233 62.3376 0.502879 62.3183 0.495973 62.2973C0.489068 62.2762 0.486773 62.254 0.489246 62.232V55.7545C0.494912 54.1871 1.12181 52.6859 2.23252 51.58C3.34322 50.4742 4.8471 49.8538 6.41447 49.8549L24.6739 49.8506Z" fill="white"/>
</g>
<defs>
<clipPath id="clip0_175_39">
<rect width="102.75" height="102.75" fill="white" transform="translate(0.488281)"/>
</clipPath>
</defs>
</svg>
