<svg width="29" height="13" viewBox="0 0 29 13" fill="none" xmlns="http://www.w3.org/2000/svg">
<path d="M0.319199 7.37467C0.29048 7.37613 0.263326 7.3882 0.242992 7.40853C0.222658 7.42887 0.210593 7.45602 0.209131 7.48474L0 9.06093L0.205829 10.6107C0.207466 10.6398 0.219958 10.6673 0.240842 10.6877C0.261726 10.708 0.289487 10.7198 0.318649 10.7208C0.347245 10.7189 0.374198 10.7068 0.39446 10.6865C0.414721 10.6662 0.426901 10.6393 0.428718 10.6107L0.67307 9.06038L0.430919 7.48474C0.429102 7.45614 0.416922 7.42919 0.396661 7.40893C0.3764 7.38867 0.349447 7.37649 0.32085 7.37467H0.319199Z" fill="white"/>
<path d="M1.47767 6.51174C1.47767 6.48065 1.46532 6.45083 1.44334 6.42885C1.42135 6.40687 1.39154 6.39452 1.36045 6.39452C1.32936 6.39452 1.29954 6.40687 1.27756 6.42885C1.25558 6.45083 1.24323 6.48065 1.24323 6.51174L0.968054 9.06093L1.24323 11.554C1.24323 11.5851 1.25558 11.6149 1.27756 11.6369C1.29954 11.6589 1.32936 11.6712 1.36045 11.6712C1.39154 11.6712 1.42135 11.6589 1.44334 11.6369C1.46532 11.6149 1.47767 11.5851 1.47767 11.554L1.79302 9.06038L1.47767 6.51174Z" fill="white"/>
<path d="M5.843 4.16014C5.78708 4.16193 5.73394 4.18495 5.69438 4.22451C5.65482 4.26407 5.6318 4.31721 5.63001 4.37313L5.40988 9.06316L5.63001 12.0944C5.63279 12.1491 5.65647 12.2007 5.69616 12.2384C5.73585 12.2761 5.78852 12.2971 5.84327 12.2971C5.89803 12.2971 5.95069 12.2761 5.99038 12.2384C6.03007 12.2007 6.05375 12.1491 6.05653 12.0944L6.30584 9.06316L6.05653 4.37313C6.05473 4.31712 6.03164 4.2639 5.99197 4.22432C5.95229 4.18475 5.89901 4.16179 5.843 4.16014Z" fill="white"/>
<path d="M3.58384 5.79017C3.54044 5.79141 3.49917 5.80921 3.46847 5.83991C3.43777 5.8706 3.41998 5.91188 3.41873 5.95527L3.16998 9.06196L3.41818 12.0685C3.41818 12.1123 3.43558 12.1543 3.46654 12.1852C3.4975 12.2162 3.5395 12.2336 3.58329 12.2336C3.62707 12.2336 3.66907 12.2162 3.70003 12.1852C3.73099 12.1543 3.74839 12.1123 3.74839 12.0685L4.03071 9.06196L3.74839 5.95362C3.74661 5.91065 3.72867 5.86994 3.69816 5.83963C3.66765 5.80932 3.62682 5.79166 3.58384 5.79017Z" fill="white"/>
<path d="M8.13848 12.3057C8.20737 12.3046 8.27312 12.2768 8.32189 12.2281C8.37065 12.1794 8.39862 12.1137 8.39989 12.0449L8.61618 9.06476L8.39989 2.82056C8.39989 2.75123 8.37235 2.68473 8.32333 2.63571C8.2743 2.58669 8.20781 2.55914 8.13848 2.55914C8.06915 2.55914 8.00266 2.58669 7.95363 2.63571C7.90461 2.68473 7.87707 2.75123 7.87707 2.82056L7.685 9.06421L7.87707 12.0454C7.87821 12.1143 7.90615 12.18 7.95496 12.2286C8.00377 12.2772 8.0696 12.3049 8.13848 12.3057Z" fill="white"/>
<path d="M12.8384 12.3195C12.933 12.3181 13.0234 12.2798 13.0902 12.2127C13.157 12.1457 13.195 12.0553 13.1961 11.9607L13.3469 9.06585L13.1961 1.85634C13.1961 1.76147 13.1584 1.67048 13.0914 1.60339C13.0243 1.53631 12.9333 1.49862 12.8384 1.49862C12.7435 1.49862 12.6526 1.53631 12.5855 1.60339C12.5184 1.67048 12.4807 1.76147 12.4807 1.85634L12.3459 9.06585C12.3459 9.07025 12.4807 11.9645 12.4807 11.9645C12.4827 12.0585 12.5211 12.1481 12.5878 12.2143C12.6546 12.2805 12.7444 12.3182 12.8384 12.3195Z" fill="white"/>
<path d="M10.4708 12.3085C10.5528 12.3077 10.6313 12.2748 10.6891 12.2167C10.747 12.1586 10.7797 12.0801 10.7801 11.9981L10.964 9.06308L10.7801 2.77375C10.7819 2.732 10.7752 2.69032 10.7604 2.65123C10.7457 2.61213 10.7232 2.57643 10.6942 2.54627C10.6653 2.5161 10.6306 2.4921 10.5922 2.4757C10.5537 2.4593 10.5124 2.45085 10.4706 2.45085C10.4288 2.45085 10.3874 2.4593 10.349 2.4757C10.3106 2.4921 10.2758 2.5161 10.2469 2.54627C10.218 2.57643 10.1955 2.61213 10.1807 2.65123C10.1659 2.69032 10.1592 2.732 10.161 2.77375L9.9959 9.06363L10.161 11.9981C10.1619 12.0798 10.1948 12.158 10.2528 12.2156C10.3108 12.2733 10.3891 12.3058 10.4708 12.3063V12.3085Z" fill="white"/>
<path d="M4.70874 12.2809C4.75828 12.2797 4.80547 12.2596 4.84066 12.2247C4.87585 12.1898 4.89639 12.1428 4.89806 12.0933L5.16387 9.06142L4.89806 6.17762C4.89806 6.12741 4.87811 6.07925 4.84261 6.04375C4.8071 6.00825 4.75895 5.9883 4.70874 5.9883C4.65853 5.9883 4.61037 6.00825 4.57487 6.04375C4.53937 6.07925 4.51942 6.12741 4.51942 6.17762L4.28497 9.06032L4.51942 12.0916C4.52027 12.1416 4.54049 12.1892 4.57581 12.2245C4.61113 12.2599 4.65879 12.2801 4.70874 12.2809Z" fill="white"/>
<path d="M2.46774 12.1148C2.50437 12.1135 2.53918 12.0986 2.56535 12.0729C2.59151 12.0472 2.60715 12.0127 2.60918 11.9761L2.90802 9.05932L2.60973 6.03243C2.60973 5.99492 2.59483 5.95894 2.56831 5.93242C2.54178 5.90589 2.50581 5.89099 2.46829 5.89099C2.43078 5.89099 2.39481 5.90589 2.36828 5.93242C2.34176 5.95894 2.32686 5.99492 2.32686 6.03243L2.06379 9.05932L2.32686 11.9761C2.32811 12.013 2.34341 12.0479 2.36961 12.0738C2.39581 12.0997 2.43092 12.114 2.46774 12.1148Z" fill="white"/>
<path d="M11.6502 2.67081C11.5616 2.67125 11.4767 2.70673 11.4141 2.76953C11.3515 2.83232 11.3163 2.91732 11.3162 3.00597L11.167 9.06581L11.3162 11.9826C11.3197 12.0688 11.3564 12.1503 11.4186 12.21C11.4808 12.2698 11.5637 12.3031 11.65 12.3031C11.7362 12.3031 11.8191 12.2698 11.8813 12.21C11.9435 12.1503 11.9802 12.0688 11.9837 11.9826L12.1488 9.06581L11.9837 3.00487C11.9833 2.9165 11.948 2.83187 11.8856 2.76933C11.8232 2.70679 11.7386 2.67139 11.6502 2.67081Z" fill="white"/>
<path d="M6.98936 12.3118C7.05174 12.3104 7.11118 12.2851 7.15535 12.241C7.19952 12.1969 7.22502 12.1375 7.22656 12.0752L7.45935 9.06424L7.22381 3.30214C7.22087 3.24113 7.19457 3.1836 7.15035 3.14146C7.10614 3.09933 7.04741 3.07582 6.98633 3.07582C6.92526 3.07582 6.86653 3.09933 6.82231 3.14146C6.7781 3.1836 6.7518 3.24113 6.74886 3.30214L6.54303 9.06424L6.74941 12.0763C6.75084 12.139 6.77672 12.1988 6.82154 12.2428C6.86635 12.2868 6.92656 12.3115 6.98936 12.3118Z" fill="white"/>
<path d="M9.58533 12.0272L9.78511 9.0664L9.58533 2.61197C9.58703 2.57344 9.5809 2.53497 9.56732 2.49887C9.55374 2.46278 9.533 2.4298 9.50633 2.40194C9.47967 2.37408 9.44764 2.35191 9.41218 2.33676C9.37671 2.32161 9.33855 2.3138 9.29998 2.3138C9.26142 2.3138 9.22325 2.32161 9.18779 2.33676C9.15232 2.35191 9.12029 2.37408 9.09363 2.40194C9.06696 2.4298 9.04622 2.46278 9.03264 2.49887C9.01906 2.53497 9.01294 2.57344 9.01463 2.61197L8.83687 9.0664L9.01463 12.0289C9.01463 12.1045 9.04466 12.177 9.09813 12.2305C9.15159 12.2839 9.2241 12.314 9.29971 12.314C9.37531 12.314 9.44782 12.2839 9.50129 12.2305C9.55475 12.177 9.58478 12.1045 9.58478 12.0289L9.58533 12.0272Z" fill="white"/>
<path d="M24.7104 5.3439C24.2506 5.34326 23.7952 5.43496 23.3715 5.61357C23.0963 2.4667 20.4761 6.10352e-05 17.2814 6.10352e-05C16.523 0.00147142 15.7715 0.142896 15.0646 0.417222C14.8032 0.519035 14.7344 0.62415 14.7311 0.827778V11.9095C14.7326 12.012 14.7714 12.1105 14.8403 12.1865C14.9092 12.2625 15.0034 12.3108 15.1053 12.3223L24.7121 12.3283C26.6262 12.3283 28.1793 10.7648 28.1793 8.83638C28.1793 6.90798 26.6273 5.3439 24.7121 5.3439H24.7104Z" fill="white"/>
<path d="M14.0222 0.81838C13.9206 0.81925 13.8235 0.860223 13.7519 0.932375C13.6804 1.00453 13.6403 1.10202 13.6403 1.20362L13.4834 9.06693L13.6403 11.9216C13.6386 11.9729 13.6472 12.0241 13.6657 12.072C13.6842 12.1199 13.7122 12.1636 13.748 12.2004C13.7838 12.2373 13.8267 12.2665 13.874 12.2864C13.9214 12.3063 13.9723 12.3165 14.0237 12.3162C14.075 12.316 14.1258 12.3054 14.173 12.2851C14.2202 12.2648 14.2628 12.2352 14.2983 12.1981C14.3337 12.1609 14.3613 12.117 14.3794 12.0689C14.3975 12.0208 14.4058 11.9696 14.4036 11.9183V11.9216L14.5737 9.06693L14.4036 1.20087C14.4029 1.09984 14.3625 1.00313 14.2912 0.931588C14.2198 0.860044 14.1232 0.819387 14.0222 0.81838Z" fill="white"/>
</svg>
