<svg width="18" height="18" viewBox="0 0 18 18" fill="none" xmlns="http://www.w3.org/2000/svg">
<path d="M8.74088 0C3.92119 0 0 3.92192 0 8.74161C0 13.5657 3.92119 17.489 8.74088 17.489C13.5649 17.489 17.489 13.5649 17.489 8.74161C17.489 3.92192 13.5649 0 8.74088 0ZM4.30522 11.9538C5.30605 11.6472 6.34676 11.4905 7.3935 11.4888C9.1526 11.4888 10.8891 11.9348 12.4158 12.7787C12.5069 12.8282 12.5892 12.9914 12.6271 13.1955C12.6635 13.3995 12.649 13.6087 12.5892 13.7172C12.561 13.7689 12.5229 13.8144 12.477 13.8512C12.4311 13.888 12.3784 13.9154 12.3219 13.9316C12.2653 13.9479 12.2061 13.9528 12.1477 13.946C12.0893 13.9392 12.0328 13.9209 11.9815 13.8921C10.8601 13.277 9.62665 12.8933 8.35423 12.7639C7.08181 12.6344 5.79635 12.7619 4.57411 13.1386C4.51801 13.1568 4.45885 13.1636 4.40008 13.1586C4.34132 13.1537 4.28413 13.1371 4.23184 13.1098C4.17955 13.0826 4.13321 13.0452 4.09552 12.9998C4.05782 12.9545 4.02953 12.9021 4.01228 12.8457C3.93431 12.5907 4.09535 12.0223 4.30522 11.9538ZM3.92411 8.73286C5.05473 8.4257 6.22116 8.2701 7.39277 8.27013C9.50165 8.27013 11.5952 8.78023 13.4483 9.7465C13.5788 9.81208 13.6742 9.92431 13.718 10.0613C13.7401 10.1305 13.7481 10.2034 13.7416 10.2757C13.7351 10.3481 13.7142 10.4184 13.6801 10.4825C13.5147 10.806 13.3208 11.0239 13.1991 11.0239C13.1104 11.0235 13.0229 11.0021 12.9441 10.9613C11.231 10.0669 9.32594 9.6032 7.3935 9.61023C6.3186 9.60807 5.24836 9.75147 4.21195 10.0365C4.14281 10.0554 4.07062 10.0605 3.99951 10.0515C3.9284 10.0425 3.85976 10.0196 3.7975 9.98409C3.73525 9.94856 3.6806 9.90113 3.63668 9.84448C3.59276 9.78784 3.56043 9.72309 3.54153 9.65395C3.45992 9.34644 3.6472 8.80865 3.92411 8.73286ZM3.82573 6.62981C3.74371 6.65086 3.65833 6.65545 3.57452 6.64333C3.49072 6.63121 3.41014 6.60261 3.33744 6.55919C3.26475 6.51576 3.20137 6.45836 3.15098 6.39031C3.10058 6.32226 3.06416 6.2449 3.04382 6.1627C2.95419 5.79981 3.18082 5.37861 3.5102 5.29554C4.78071 4.98261 6.08428 4.82382 7.39277 4.82261C9.90682 4.82261 12.3159 5.38808 14.5516 6.50374C14.7052 6.58012 14.8222 6.71437 14.8769 6.87698C14.9315 7.03959 14.9194 7.21725 14.8431 7.3709C14.7389 7.58077 14.513 7.80667 14.2638 7.80667C14.166 7.80631 14.0696 7.78468 13.981 7.74328C11.9367 6.71771 9.67992 6.18703 7.39277 6.19404C6.20133 6.19404 5.00114 6.34051 3.82573 6.62981Z" fill="white"/>
</svg>
