<svg width="56" height="57" viewBox="0 0 56 57" fill="none" xmlns="http://www.w3.org/2000/svg">
<path d="M17.6823 43.1153L14.3379 41.6781C14.8379 42.7026 15.6247 43.5599 16.6026 44.1459C17.5806 44.7319 18.7076 45.0214 19.8469 44.9791C20.9862 44.9369 22.0887 44.5648 23.0205 43.9079C23.9524 43.2511 24.6735 42.3379 25.0963 41.2791C25.519 40.2203 25.6253 39.0616 25.4022 37.9436C25.1791 36.8256 24.6361 35.7964 23.8393 34.981C23.0425 34.1657 22.0261 33.5992 20.9135 33.3504C19.8009 33.1016 18.64 33.1812 17.5718 33.5795L21.1097 35.0444C22.18 35.4916 23.0288 36.3456 23.4694 37.4186C23.91 38.4916 23.9063 39.6957 23.4591 40.7659C23.0119 41.8362 22.1579 42.685 21.0849 43.1256C20.012 43.5662 18.8079 43.5625 17.7376 43.1153H17.6823Z" fill="white"/>
<path d="M28.1576 0.770574C21.1324 0.755257 14.365 3.4156 9.23086 8.21088C4.09674 13.0061 0.981227 19.5765 0.517578 26.5864L15.3879 32.6948C15.7942 32.4248 16.2301 32.2022 16.687 32.0315C17.6893 31.6011 18.7759 31.4027 19.8656 31.451L26.6098 21.6112C26.6098 19.5338 27.2258 17.5031 28.3799 15.7759C29.534 14.0487 31.1744 12.7024 33.0936 11.9075C35.0128 11.1125 37.1247 10.9045 39.1621 11.3098C41.1995 11.715 43.071 12.7154 44.5399 14.1843C46.0088 15.6532 47.0092 17.5247 47.4144 19.5621C47.8197 21.5995 47.6117 23.7114 46.8167 25.6306C46.0218 27.5498 44.6755 29.1902 42.9483 30.3443C41.2211 31.4984 39.1904 32.1144 37.113 32.1144H36.8919L27.1902 39.0244C27.2344 40.9216 26.5724 42.7676 25.3327 44.2044C24.0929 45.6412 22.3638 46.5664 20.4805 46.8005C18.5973 47.0346 16.6942 46.561 15.1404 45.4715C13.5866 44.382 12.4928 42.7542 12.0711 40.9039L1.65082 36.4815C3.14452 41.3739 5.96659 45.7559 9.80292 49.1396C13.6392 52.5233 18.3393 54.776 23.38 55.647C28.4206 56.518 33.6041 55.9731 38.3534 54.0729C43.1028 52.1728 47.2317 48.9919 50.2805 44.8844C53.3293 40.7769 55.1785 35.904 55.6221 30.8079C56.0658 25.7118 55.0866 20.5926 52.7935 16.02C50.5004 11.4474 46.9833 7.60091 42.6338 4.90859C38.2843 2.21627 33.273 0.783785 28.1576 0.770574V0.770574Z" fill="white"/>
<path d="M44.1612 21.5002C44.1776 20.1137 43.7815 18.7536 43.0232 17.5928C42.2648 16.4319 41.1785 15.5227 39.9023 14.9807C38.626 14.4387 37.2174 14.2883 35.8555 14.5487C34.4936 14.8091 33.2398 15.4685 32.2535 16.4431C31.2673 17.4177 30.593 18.6635 30.3163 20.0222C30.0397 21.3809 30.1733 22.7912 30.7 24.0738C31.2268 25.3565 32.123 26.4535 33.2747 27.2257C34.4264 27.9978 35.7816 28.4101 37.1682 28.4102C39.0064 28.4032 40.7685 27.6755 42.0761 26.3835C43.3836 25.0915 44.1322 23.3381 44.1612 21.5002V21.5002ZM31.9443 21.5002C31.9497 20.4627 32.2624 19.4501 32.8427 18.5901C33.4231 17.7301 34.2452 17.0613 35.2052 16.6681C36.1653 16.2748 37.2204 16.1748 38.2372 16.3805C39.2541 16.5863 40.1873 17.0886 40.919 17.8241C41.6507 18.5597 42.1481 19.4954 42.3485 20.5134C42.5489 21.5314 42.4433 22.5859 42.045 23.5439C41.6467 24.5018 40.9736 25.3204 40.1106 25.8963C39.2476 26.4721 38.2334 26.7794 37.1959 26.7794C36.5015 26.7795 35.8141 26.6418 35.1733 26.3745C34.5325 26.1071 33.9511 25.7153 33.4627 25.2218C32.9743 24.7282 32.5887 24.1428 32.328 23.4992C32.0674 22.8557 31.9369 22.1668 31.9443 21.4725V21.5002Z" fill="white"/>
</svg>
