<svg width="56" height="56" viewBox="0 0 56 56" fill="none" xmlns="http://www.w3.org/2000/svg">
<path d="M32.6152 55.9792H41.0708C48.8345 55.9792 55.2146 49.5992 55.2146 41.8355V14.9143C55.2146 7.15057 48.8345 0.770508 41.0708 0.770508H32.4444C32.2736 0.770508 32.0942 0.94131 32.0942 1.11211V55.6376C32.0942 55.8084 32.265 55.9792 32.6152 55.9792ZM43.1377 25.6162C46.2466 25.6162 48.6551 28.2041 48.6551 31.1336C48.6551 34.2425 46.0672 36.651 43.1377 36.651C40.0287 36.651 37.6203 34.2425 37.6203 31.1336C37.4408 28.0333 40.0287 25.6162 43.1377 25.6162ZM26.2266 0.770508H14.1496C6.38592 0.770508 0.00585938 7.15057 0.00585938 14.9143V41.8355C0.00585938 49.5992 6.38592 55.9792 14.1496 55.9792H26.2266C26.3974 55.9792 26.5768 55.8084 26.5768 55.6376V1.11211C26.5768 0.94131 26.406 0.770508 26.2266 0.770508ZM22.2636 51.4953H14.1496C12.8805 51.4973 11.6235 51.2488 10.4506 50.7641C9.27768 50.2794 8.21198 49.5679 7.31457 48.6705C6.41717 47.7731 5.70571 46.7074 5.22099 45.5345C4.73626 44.3616 4.4878 43.1046 4.48984 41.8355V14.9143C4.4878 13.6452 4.73626 12.3881 5.22099 11.2152C5.70571 10.0423 6.41717 8.97663 7.31457 8.07922C8.21198 7.18182 9.27768 6.47036 10.4506 5.98564C11.6235 5.50091 12.8805 5.25245 14.1496 5.25449H22.0928L22.2636 51.4953ZM8.63223 17.3314C8.63223 20.2609 10.8785 22.5072 13.808 22.5072C16.7376 22.5072 18.9839 20.2609 18.9839 17.3314C18.9839 14.4019 16.7376 12.1556 13.808 12.1556C10.8785 12.1556 8.63223 14.4019 8.63223 17.3314Z" fill="white"/>
</svg>
