<svg width="22" height="18" viewBox="0 0 22 18" fill="none" xmlns="http://www.w3.org/2000/svg">
<path d="M21.5289 2.07163C20.9294 2.96342 20.1938 3.72363 19.3223 4.35225C19.3309 4.52085 19.3352 4.7114 19.3352 4.92392C19.3352 6.1047 19.163 7.28691 18.8187 8.47054C18.4744 9.65419 17.9485 10.7871 17.241 11.8694C16.5334 12.9517 15.6906 13.9105 14.7125 14.7458C13.7344 15.5811 12.5587 16.2472 11.1854 16.7439C9.81202 17.2407 8.34018 17.4891 6.76983 17.4891C4.31903 17.4891 2.06208 16.8274 -0.00100708 15.5042C0.365167 15.5449 0.716359 15.5653 1.05257 15.5653C3.10001 15.5653 4.92871 14.9347 6.53866 13.6734C5.58402 13.6559 4.72908 13.362 3.97382 12.7918C3.21856 12.2216 2.69881 11.4929 2.41456 10.6059C2.69552 10.6594 2.97281 10.6861 3.24645 10.6861C3.64032 10.6861 4.02789 10.6348 4.40915 10.532C3.39038 10.328 2.54522 9.82057 1.87368 9.00978C1.20216 8.199 0.866397 7.2632 0.866397 6.20239V6.14772C1.49172 6.49395 2.15873 6.67812 2.86742 6.70023C2.26391 6.29789 1.78542 5.77322 1.43194 5.12623C1.07844 4.47924 0.90169 3.77909 0.90169 3.02576C0.90169 2.23126 1.10078 1.49143 1.49896 0.806263C2.60685 2.16583 3.9493 3.25243 5.5263 4.06608C7.10332 4.87974 8.79517 5.33162 10.6018 5.42173C10.5248 5.10059 10.4862 4.76547 10.486 4.41637C10.486 3.19743 10.9174 2.15663 11.7801 1.29398C12.6429 0.431327 13.6837 0 14.9026 0C16.1788 0 17.2538 0.46469 18.1275 1.39407C19.1257 1.19634 20.0604 0.838693 20.9315 0.321134C20.5959 1.37736 19.9492 2.19216 18.9914 2.76554C19.8717 2.66094 20.7176 2.42963 21.5289 2.07163Z" fill="white"/>
</svg>
