<svg width="87" height="54" viewBox="0 0 87 54" fill="none" xmlns="http://www.w3.org/2000/svg">
<path d="M21.9696 27.3251C21.9696 28.6389 21.4477 29.8989 20.5186 30.8279C19.5896 31.757 18.3296 32.2789 17.0158 32.2789C15.7019 32.2789 14.4419 31.757 13.5129 30.8279C12.5839 29.8989 12.062 28.6389 12.062 27.3251C12.062 26.0112 12.5839 24.7512 13.5129 23.8222C14.4419 22.8932 15.7019 22.3713 17.0158 22.3713C18.3296 22.3713 19.5896 22.8932 20.5186 23.8222C21.4477 24.7512 21.9696 26.0112 21.9696 27.3251V27.3251ZM50.0429 7.50986C50.0429 9.26163 49.347 10.9417 48.1083 12.1803C46.8696 13.419 45.1896 14.1149 43.4379 14.1149C41.6861 14.1149 40.0061 13.419 38.7674 12.1803C37.5287 10.9417 36.8328 9.26163 36.8328 7.50986C36.8328 5.75808 37.5287 4.07806 38.7674 2.83937C40.0061 1.60067 41.6861 0.904785 43.4379 0.904785C45.1896 0.904785 46.8696 1.60067 48.1083 2.83937C49.347 4.07806 50.0429 5.75808 50.0429 7.50986ZM7.10637 27.3251C7.10637 28.201 6.75842 29.041 6.13908 29.6603C5.51973 30.2797 4.67972 30.6276 3.80383 30.6276C3.14964 30.6283 2.50994 30.4349 1.96571 30.0719C1.42147 29.7089 0.997165 29.1926 0.74649 28.5883C0.495814 27.9841 0.430041 27.319 0.557494 26.6774C0.684947 26.0357 0.999897 25.4463 1.46248 24.9837C1.92506 24.5211 2.51449 24.2062 3.15614 24.0787C3.7978 23.9513 4.46284 24.0171 5.0671 24.2677C5.67136 24.5184 6.18767 24.9427 6.55068 25.487C6.91369 26.0312 7.10708 26.6709 7.10637 27.3251V27.3251ZM86.3744 27.3251C86.3744 28.201 86.0265 29.041 85.4071 29.6603C84.7878 30.2797 83.9478 30.6276 83.0719 30.6276C82.196 30.6276 81.356 30.2797 80.7366 29.6603C80.1173 29.041 79.7693 28.201 79.7693 27.3251C79.7693 26.4492 80.1173 25.6092 80.7366 24.9898C81.356 24.3705 82.196 24.0225 83.0719 24.0225C83.9478 24.0225 84.7878 24.3705 85.4071 24.9898C86.0265 25.6092 86.3744 26.4492 86.3744 27.3251V27.3251ZM74.8173 27.3251C74.8173 28.6394 74.2952 29.8999 73.3659 30.8292C72.4365 31.7586 71.176 32.2807 69.8617 32.2807C68.5474 32.2807 67.2869 31.7586 66.3576 30.8292C65.4282 29.8999 64.9061 28.6394 64.9061 27.3251C64.9061 26.0108 65.4282 24.7503 66.3576 23.8209C67.2869 22.8916 68.5474 22.3695 69.8617 22.3695C71.176 22.3695 72.4365 22.8916 73.3659 23.8209C74.2952 24.7503 74.8173 26.0108 74.8173 27.3251V27.3251ZM45.3843 37.4724C45.395 39.3867 46.3003 41.097 47.7387 42.1704C48.7752 43.0301 49.5211 44.1888 49.8745 45.4883C50.2279 46.7878 50.1715 48.1647 49.7132 49.4309C49.2548 50.6972 48.4168 51.7911 47.3135 52.5633C46.2102 53.3355 44.8954 53.7483 43.5488 53.7454H43.4379C42.0931 53.7442 40.7813 53.3291 39.6807 52.5563C38.5802 51.7836 37.7442 50.6907 37.2865 49.4262C36.8288 48.1617 36.7715 46.787 37.1225 45.4888C37.4734 44.1907 38.2155 43.032 39.248 42.1704C40.6792 41.097 41.613 39.3867 41.6023 37.4688V37.0108C41.6018 36.0977 41.3887 35.1972 40.9801 34.3806C40.5715 33.564 39.9785 32.8536 39.248 32.3057C38.2114 31.4451 37.4655 30.2857 37.112 28.9856C36.7586 27.6855 36.8148 26.308 37.273 25.041C37.7312 23.774 38.569 22.6792 39.6723 21.9059C40.7756 21.1326 42.0906 20.7185 43.4379 20.72H43.5488C47.1626 20.72 50.0966 23.6468 50.0966 27.2678C50.0966 29.2894 49.1735 31.1035 47.7387 32.3057C47.0023 32.8481 46.405 33.5573 45.9957 34.3752C45.5865 35.1931 45.3769 36.0963 45.3843 37.0108V37.4724V37.4724ZM58.5945 27.5612C58.6088 29.4755 59.5104 31.1894 60.9488 32.2628C61.9853 33.1225 62.7312 34.2812 63.0846 35.5807C63.438 36.8802 63.3817 38.2571 62.9233 39.5233C62.465 40.7896 61.6269 41.8835 60.5236 42.6557C59.4203 43.4279 58.1056 43.8407 56.7589 43.8378H56.6516C55.3056 43.8394 53.9918 43.4259 52.8893 42.6537C51.7868 41.8815 50.9492 40.7882 50.4908 39.5226C50.0323 38.2571 49.9752 36.881 50.3272 35.5818C50.6793 34.2827 51.4234 33.1237 52.4581 32.2628C53.8893 31.1894 54.8268 29.4791 54.8125 27.5612V27.1032C54.8119 26.1901 54.5989 25.2896 54.1903 24.473C53.7816 23.6563 53.1886 22.946 52.4581 22.3981C51.4215 21.5375 50.6756 20.3781 50.3222 19.078C49.9687 17.7779 50.0249 16.4004 50.4831 15.1334C50.9413 13.8664 51.7792 12.7716 52.8825 11.9983C53.9857 11.225 55.3007 10.8109 56.648 10.8124H56.7625C60.3763 10.8124 63.3067 13.7357 63.3067 17.3602C63.3067 19.3818 62.3836 21.1959 60.9524 22.3981C60.216 22.9405 59.6187 23.6497 59.2094 24.4676C58.8002 25.2855 58.5907 26.1887 58.598 27.1032V27.5612H58.5945ZM32.1742 27.5612C32.1849 29.4755 33.0901 31.1894 34.5285 32.2628C35.2656 32.8768 35.8586 33.6454 36.2655 34.5142C36.6723 35.383 36.8831 36.3306 36.8829 37.2899C36.8829 40.9181 33.9525 43.8378 30.335 43.8378H30.2277C28.882 43.8387 27.5687 43.4247 26.4668 42.6522C25.3649 41.8797 24.5279 40.7863 24.0699 39.521C23.6118 38.2556 23.555 36.8798 23.9072 35.581C24.2593 34.2821 25.0033 33.1235 26.0378 32.2628C27.469 31.1894 28.4029 29.4791 28.3886 27.5612V27.1032C28.3885 26.1904 28.176 25.2901 27.768 24.4735C27.36 23.6569 26.7677 22.9464 26.0378 22.3981C25.0012 21.5375 24.2553 20.3781 23.9019 19.078C23.5484 17.7779 23.6046 16.4004 24.0628 15.1334C24.521 13.8664 25.3589 12.7716 26.4622 11.9983C27.5654 11.225 28.8804 10.8109 30.2277 10.8124H30.335C33.9525 10.8124 36.8829 13.7357 36.8829 17.3602C36.8829 19.3818 35.9633 21.1959 34.5285 22.3981C33.7921 22.9405 33.1948 23.6497 32.7856 24.4676C32.3763 25.2855 32.1668 26.1887 32.1742 27.1032V27.5612Z" fill="white"/>
</svg>
