<svg width="56" height="56" viewBox="0 0 56 56" fill="none" xmlns="http://www.w3.org/2000/svg">
<path d="M27.6044 0.770508C12.3829 0.770508 0 13.1534 0 28.3749C0 43.5964 12.3829 55.9792 27.6044 55.9792C42.8259 55.9792 55.2087 43.5964 55.2087 28.3749C55.2087 13.1534 42.8259 0.770508 27.6044 0.770508ZM27.6044 5.37124C27.8206 5.37124 28.0368 5.43335 28.2508 5.44255C28.8351 5.46095 29.401 5.46095 29.976 5.51616C30.0497 5.52306 30.121 5.50696 30.1923 5.51616C30.4085 5.54146 30.6247 5.55987 30.8387 5.58517C30.9836 5.60587 31.1262 5.63118 31.2712 5.65878C32.1591 5.8037 33.0056 5.99233 33.8591 6.23387C34.7562 6.48691 35.674 6.80896 36.5183 7.16782C36.5367 7.17702 36.5712 7.15862 36.5896 7.16782C36.9669 7.32885 37.3096 7.56348 37.6685 7.74291C38.1446 7.97755 38.6484 8.19378 39.1062 8.46293C39.2327 8.53424 39.3477 8.60555 39.465 8.67686C39.675 8.7654 39.8692 8.88736 40.0401 9.03802C40.0493 9.04722 40.0309 9.10013 40.0401 9.10933C36.2491 6.92398 27.6757 13.855 27.6757 13.855C24.2803 11.2556 21.1979 9.49579 18.9067 8.89309C17.4138 8.51583 16.2843 8.59635 15.5275 8.89309C15.8955 8.66076 16.2176 8.38241 16.6063 8.17538C16.6316 8.15698 16.6523 8.12017 16.6776 8.10177C17.2619 7.77052 17.8646 7.51057 18.4742 7.23913C18.5202 7.22303 18.5731 7.18622 18.6191 7.17012C19.0493 6.97919 19.4703 6.81816 19.912 6.66404C20.3076 6.52142 20.7309 6.4225 21.1334 6.30518C21.7269 6.13496 22.3204 5.92792 22.9323 5.80371C23.121 5.7669 23.3188 5.7669 23.5074 5.73009C24.002 5.64038 24.5035 5.56907 25.0165 5.51616C25.0878 5.50696 25.1614 5.52306 25.2327 5.51616C26.0202 5.4268 26.8118 5.37842 27.6044 5.37124V5.37124ZM41.4066 11.3384C42.0806 11.3384 42.8719 11.481 43.5643 11.9135C43.654 11.994 43.7713 12.0469 43.8518 12.1297C43.9761 12.2355 44.0934 12.3528 44.2107 12.4886C44.5327 12.8198 44.8479 13.1442 45.1446 13.4938C45.2068 13.5743 45.2965 13.6295 45.3609 13.7101C45.5403 13.9263 45.6921 14.1333 45.8624 14.3565C46.143 14.7245 46.3937 15.1202 46.6537 15.5066C47.0678 16.1185 47.4542 16.7212 47.8039 17.3768C48.1374 17.9772 48.471 18.6075 48.7401 19.2447C48.7562 19.2907 48.793 19.3436 48.8091 19.3897L49.0277 19.8934C49.2347 20.4225 49.4302 20.9976 49.6028 21.5451C49.8259 22.2651 50.0237 22.9575 50.1778 23.7028C50.1939 23.8018 50.2308 23.8915 50.2469 23.9904C50.5183 25.4005 50.608 26.8842 50.608 28.3749C50.6205 33.7251 48.7647 38.9118 45.3609 43.0397C45.1739 43.2594 44.9822 43.4749 44.7858 43.6861C45.8808 37.9007 43.8679 33.6335 40.6152 28.3036C37.2199 22.9023 31.8462 17.5931 31.8462 17.5931C36.6356 13.089 40.606 11.6351 41.4066 11.3361V11.3384ZM13.5146 11.481C15.0145 11.5799 16.5695 12.1642 17.9727 13.0637L18.1154 13.135C21.1058 14.9315 23.5074 17.5931 23.5074 17.5931C20.908 20.089 14.674 27.6549 12.5807 32.7594C9.489 40.5576 10.9267 43.9736 10.9267 43.9736C11.3224 39.672 17.6921 32.067 19.9856 29.67C21.1795 28.2668 23.5051 26.0032 25.304 24.2066C26.5991 22.8034 27.6757 21.69 27.6757 21.69L29.6885 23.7028C31.9388 25.9363 34.1206 28.2377 36.2307 30.6039C37.7306 32.3016 40.3484 35.5014 41.0477 36.4975C44.0474 40.7669 44.6133 43.6608 44.6409 43.831C44.3878 44.1071 44.121 44.3509 43.8518 44.6201C43.3297 45.1422 42.8351 45.6644 42.2692 46.1314C41.7033 46.5984 41.0822 47.0124 40.4726 47.4242C39.8607 47.8383 39.258 48.2247 38.6024 48.5744C38.1009 48.8435 37.6133 49.1311 37.0934 49.3657C36.9945 49.4117 36.9047 49.4646 36.8058 49.5106C36.1778 49.7798 35.5199 50.0121 34.8643 50.2283C34.8114 50.2467 34.7746 50.2812 34.7217 50.2997C33.9185 50.5585 33.1023 50.775 32.2764 50.9484C31.837 51.0381 31.3609 51.0289 30.9123 51.091C29.841 51.2647 28.7585 51.3608 27.6734 51.3785C26.8568 51.3785 26.0217 51.3164 25.2304 51.2336C23.7441 51.091 22.2755 50.8021 20.8459 50.371C20.8275 50.3641 20.7907 50.3802 20.7723 50.371C18.6522 49.6809 16.6426 48.6893 14.8051 47.4265C14.789 47.415 14.7522 47.4334 14.7361 47.4265C13.5473 46.5977 12.4397 45.658 11.4282 44.6201C9.29915 42.4859 7.61276 39.9521 6.46595 37.1643C5.31914 34.3764 4.73451 31.3894 4.74565 28.3749C4.74565 22.2743 7.13573 16.8017 10.9267 12.7025C10.9267 12.7025 11.9159 11.4833 13.5146 11.4833V11.481Z" fill="white"/>
</svg>
