<svg width="24" height="18" viewBox="0 0 24 18" fill="none" xmlns="http://www.w3.org/2000/svg">
<path d="M23.9689 8.6165C23.9689 8.55765 23.9689 8.49077 23.9662 8.4132C23.9636 8.19651 23.9582 7.95308 23.9529 7.69359C23.9315 6.94724 23.894 6.20356 23.8352 5.50268C23.7549 4.53697 23.6372 3.73177 23.4767 3.12719C23.3073 2.49627 22.9753 1.92085 22.5138 1.45846C22.0524 0.99606 21.4776 0.66288 20.8471 0.492219C20.09 0.288911 18.608 0.163181 16.5214 0.0856032C15.529 0.0481518 14.467 0.0240758 13.4049 0.0107002C13.0331 0.00535004 12.688 0.0026751 12.3777 0H11.5912C11.2809 0.0026751 10.9358 0.00535004 10.564 0.0107002C9.50196 0.0240758 8.43995 0.0481518 7.44748 0.0856032C5.3609 0.165856 3.87622 0.291586 3.12184 0.492219C2.49106 0.662461 1.91609 0.9955 1.45457 1.45796C0.993048 1.92042 0.661179 2.49606 0.492219 3.12719C0.329038 3.73177 0.214008 4.53697 0.133755 5.50268C0.0749029 6.20356 0.0374514 6.94724 0.0160506 7.69359C0.00802527 7.95308 0.00535016 8.19651 0.00267506 8.4132C0.00267506 8.49077 0 8.55765 0 8.6165V8.76631C0 8.82516 -4.07454e-08 8.89204 0.00267506 8.96962C0.00535016 9.1863 0.0107004 9.42973 0.0160506 9.68922C0.0374514 10.4356 0.0749029 11.1793 0.133755 11.8801C0.214008 12.8458 0.331713 13.651 0.492219 14.2556C0.834632 15.537 1.84047 16.5482 3.12184 16.8906C3.87622 17.0939 5.3609 17.2196 7.44748 17.2972C8.43995 17.3347 9.50196 17.3587 10.564 17.3721C10.9358 17.3775 11.2809 17.3801 11.5912 17.3828H12.3777C12.688 17.3801 13.0331 17.3775 13.4049 17.3721C14.467 17.3587 15.529 17.3347 16.5214 17.2972C18.608 17.217 20.0927 17.0912 20.8471 16.8906C22.1284 16.5482 23.1343 15.5397 23.4767 14.2556C23.6399 13.651 23.7549 12.8458 23.8352 11.8801C23.894 11.1793 23.9315 10.4356 23.9529 9.68922C23.9609 9.42973 23.9636 9.1863 23.9662 8.96962C23.9662 8.89204 23.9689 8.82516 23.9689 8.76631V8.6165ZM22.0428 8.75561C22.0428 8.81179 22.0428 8.87331 22.0402 8.94554C22.0375 9.1542 22.0321 9.38426 22.0268 9.63304C22.0081 10.3446 21.9706 11.0562 21.9144 11.7169C21.8422 12.5783 21.7406 13.2846 21.6148 13.7581C21.449 14.376 20.9621 14.8655 20.3468 15.0287C19.7851 15.1785 18.3699 15.2989 16.4465 15.3711C15.4728 15.4086 14.4242 15.4327 13.3782 15.446C13.0117 15.4514 12.672 15.4541 12.367 15.4541H11.6019L10.5907 15.446C9.54476 15.4327 8.4988 15.4086 7.52239 15.3711C5.59899 15.2962 4.18118 15.1785 3.62209 15.0287C3.00681 14.8629 2.51995 14.376 2.35409 13.7581C2.22836 13.2846 2.12671 12.5783 2.05448 11.7169C1.9983 11.0562 1.96353 10.3446 1.94212 9.63304C1.9341 9.38426 1.93142 9.15152 1.92875 8.94554C1.92875 8.87331 1.92607 8.80911 1.92607 8.75561V8.6272C1.92607 8.57103 1.92607 8.5095 1.92875 8.43727C1.93142 8.22861 1.93677 7.99855 1.94212 7.74977C1.96085 7.03819 1.9983 6.32662 2.05448 5.66587C2.12671 4.80448 2.22836 4.09826 2.35409 3.62476C2.51995 3.00681 3.00681 2.51727 3.62209 2.35409C4.18386 2.20428 5.59899 2.0839 7.52239 2.01168C8.49612 1.97422 9.54476 1.95015 10.5907 1.93677C10.9572 1.93142 11.297 1.92875 11.6019 1.92875H12.367L13.3782 1.93677C14.4242 1.95015 15.4701 1.97422 16.4465 2.01168C18.3699 2.08658 19.7877 2.20428 20.3468 2.35409C20.9621 2.51995 21.449 3.00681 21.6148 3.62476C21.7406 4.09826 21.8422 4.80448 21.9144 5.66587C21.9706 6.32662 22.0054 7.03819 22.0268 7.74977C22.0348 7.99855 22.0375 8.23129 22.0402 8.43727C22.0402 8.5095 22.0428 8.5737 22.0428 8.6272V8.75561ZM9.60362 12.276L15.8099 8.66466L9.60362 5.10677V12.276Z" fill="white"/>
</svg>
